<?xml version="1.0" encoding="utf-8"?>
<!-- Generator: Adobe Illustrator 25.2.1, SVG Export Plug-In . SVG Version: 6.00 Build 0)  -->
<svg version="1.1" id="Layer_1" xmlns="http://www.w3.org/2000/svg" xmlns:xlink="http://www.w3.org/1999/xlink" x="0px" y="0px"
	 viewBox="0 0 1626.3 448" style="enable-background:new 0 0 1626.3 448;" xml:space="preserve">
<style type="text/css">
	.st0{fill:#FFFFFF;}
	.st1{fill:#AEFF00;}
</style>
<g>
	<path class="st0" d="M131,188.8l-7.1,25.2c-2.8,10-8.6,15.1-17.2,15.1c-8.6,0-11.5-5-8.7-15.1l25.9-92c2.9-10.2,8.6-15.3,17.2-15.3
		c8.6,0,11.5,5.1,8.6,15.3l-5.4,19.1h24.5l4.9-17.4c3.6-12.9,3.2-22.8-1.4-29.9c-4.5-7.1-13-10.6-25.4-10.6
		c-12.4,0-22.8,3.5-31.3,10.6c-8.5,7.1-14.6,17-18.2,29.9l-24.9,88.5c-3.6,12.9-3.2,22.8,1.4,29.9c4.5,7.1,13,10.6,25.4,10.6
		c12.4,0,22.8-3.5,31.3-10.6c8.5-7.1,14.6-17,18.2-29.9l6.6-23.3H131z"/>
	<path class="st0" d="M265,94.8c-4.4-6.2-13.2-9.3-26.6-9.3h-38.3l-46.3,164.7h25.9l19.9-70.6h8.9c6,0,9.7,1.5,11.3,4.5
		c1.6,3,1.3,8.2-0.8,15.8l-8.5,30.1c-1.7,6.1-2.8,10.4-3.1,12.7c-0.3,2.4-0.4,4.9-0.2,7.5h26.3c-0.5-2.8-0.4-5.7,0.1-8.6
		c0.5-2.9,1.4-6.7,2.7-11.4l8.1-28.9c2.7-9.7,3.6-17.5,2.7-23.3c-1-5.8-4.3-9.6-10-11.5l0.1-0.5c12.6-4.5,21.3-15.4,26.1-32.5
		l2.8-10.1C269.7,110.5,269.4,101,265,94.8z M239.5,126l-3.6,12.7c-1.8,6.3-4.3,10.7-7.7,13.4c-3.3,2.7-7.6,4-12.8,4h-9.4l13.2-47.1
		h11.8c4.5,0,7.5,1.3,8.9,4C241.3,115.7,241.2,120,239.5,126z"/>
	<polygon class="st0" points="346.9,85.5 312.2,146 311.8,146 311.1,85.5 283.6,85.5 288.3,180.1 268.5,250.2 294.4,250.2 
		314.2,180.1 372.1,85.5 	"/>
	<path class="st0" d="M437.3,320.5c-7.6,0-14.1,3.2-18,9.4v-28.5h-6.4v66.8h6.1v-9.4c3.9,6.4,10.4,9.8,18.3,9.8
		c13.5,0,23.6-9.8,23.6-24.1C460.9,330.2,450.8,320.5,437.3,320.5z M436.8,363c-10.1,0-17.7-7.4-17.7-18.5
		c0-11.1,7.6-18.5,17.7-18.5c10,0,17.7,7.4,17.7,18.5C454.5,355.6,446.8,363,436.8,363z"/>
	<path class="st0" d="M488.3,361.1l-17.8-40.3h-6.7l21.2,47.3l-2.1,4.6c-2.7,5.9-5.6,7.9-9.8,7.9c-3.4,0-6.3-1.3-8.6-3.6l-3,4.8
		c2.9,2.9,7.1,4.3,11.5,4.3c6.8,0,11.8-3,15.8-12.2l23.7-53.1h-6.3L488.3,361.1z"/>
	<path class="st0" d="M556.8,229c8.9,0,14.9-5.4,18-16.2l25.3-89.9c3-10.8,0.1-16.2-8.8-16.2c-8.9,0-14.9,5.4-18,16.2L548,212.8
		C544.9,223.6,547.9,229,556.8,229z"/>
	<polygon class="st0" points="1296.3,114.2 1295.8,114.2 1261.6,195.6 1284.9,195.6 	"/>
	<path class="st0" d="M1025,229c8.9,0,14.9-5.4,18-16.2l25.3-89.9c3-10.8,0.1-16.2-8.8-16.2c-8.9,0-14.9,5.4-18,16.2l-25.3,89.9
		C1013.1,223.6,1016,229,1025,229z"/>
	<path class="st0" d="M682.1,152.1c3.3-2.7,5.9-7.1,7.7-13.4l3.6-12.7c1.7-6,1.8-10.3,0.5-12.9c-1.4-2.7-4.3-4-8.9-4h-11.8
		l-13.2,47.1h9.4C674.5,156.1,678.8,154.8,682.1,152.1z"/>
	<path class="st0" d="M745.7,229c8.9,0,14.9-5.4,18-16.2l25.3-89.9c3-10.8,0.1-16.2-8.8-16.2c-8.9,0-14.9,5.4-18,16.2l-25.3,89.9
		C733.8,223.6,736.8,229,745.7,229z"/>
	<path class="st0" d="M1506.4,274.6L1556,61.1H464.1L451.6,109c-0.1-5.2-1.3-9.6-3.6-13.2c-4.5-6.9-13.2-10.4-26-10.4h-38.1
		l-46.3,164.7h25.9l18.9-67h12.2c12.9,0,23.5-3.4,31.9-10.4c5.3-4.3,9.6-10,13.1-16.9l-30.9,118.6H1506.4z M423.6,124.6l-5.5,19.5
		c-1.6,5.6-3.8,9.6-6.6,12c-2.8,2.4-6.3,3.5-10.5,3.5h-12.2l14.2-50.6h12.2c4.2,0,7.1,1.2,8.5,3.5
		C425.3,114.9,425.2,118.9,423.6,124.6z M1447.6,124.1c3.7-13,9.8-23.1,18.4-30.2c8.6-7.1,19.2-10.7,31.7-10.7
		c12.4,0,20.8,3.6,25.1,10.7c4.3,7.1,4.6,17.4,0.9,30.7l-1.9,6.8h-24.5l2.4-8.5c1.6-5.6,1.6-9.8,0.2-12.4c-1.5-2.6-4.3-3.9-8.6-3.9
		c-8.6,0-14.4,5.3-17.4,15.8c-1.7,6-1.6,11.5,0.1,16.7c1.8,5.2,5.8,11.5,12.2,18.8c8.2,9.4,13.2,18,15.1,25.6
		c1.9,7.7,1.4,16.7-1.5,27.1c-3.8,13.5-10,23.8-18.7,31.1c-8.7,7.2-19.4,10.8-32.1,10.8c-12.5,0-21-3.6-25.5-10.7
		c-4.4-7.1-4.8-17.4-1-30.7l2.6-9.4h24.5l-3.2,11.3c-3,10.7,0,16,8.9,16c4.4,0,8.1-1.3,11.1-3.9c3-2.6,5.3-6.8,7-12.6
		c1.9-6.9,2.1-13,0.4-18.2c-1.7-5.3-5.7-11.6-12.1-18.9c-8-9.4-13.1-17.9-15.2-25.5C1444.6,142.3,1444.9,133.7,1447.6,124.1z
		 M1394.5,85.5l-2.6,98.6h0.5l27.7-98.6h23.1l-46.3,164.7h-26.6L1373,130h-0.5l-33.8,120.2h-23.1L1362,85.5H1394.5z M1322.7,85.5
		l-19.5,164.7h-25.9l4.5-32.7l-0.1,0.5h-29.4l-13.8,32.2h-24l73.2-164.7H1322.7z M1248.4,85.5L1202,250.2h-25.9l46.3-164.7H1248.4z
		 M1154.5,85.5l-2.6,98.6h0.5l27.7-98.6h23.1l-46.3,164.7h-26.6l2.8-120.2h-0.5l-33.8,120.2h-23.1l46.3-164.7H1154.5z M1033.8,94
		c8.8-7.2,19.5-10.8,32.2-10.8c12.7,0,21.4,3.6,26.1,10.8c4.7,7.2,5.2,17.4,1.5,30.6l-24.4,86.6c-3.7,13.2-10,23.4-18.7,30.6
		c-8.8,7.2-19.5,10.8-32.2,10.8c-12.7,0-21.4-3.6-26.1-10.8c-4.7-7.2-5.2-17.4-1.5-30.6l24.4-86.6
		C1018.8,111.4,1025,101.2,1033.8,94z M936.4,85.5h80l-6.6,23.5h-27.1L943,250.2h-25.9l39.7-141.2h-27.1L936.4,85.5z M875.3,85.5
		l-2.6,98.6h0.5l27.7-98.6H924l-46.3,164.7H851l2.8-120.2h-0.5l-33.8,120.2h-23.1l46.3-164.7H875.3z M754.6,94
		c8.8-7.2,19.5-10.8,32.2-10.8c12.7,0,21.4,3.6,26.1,10.8c4.7,7.2,5.2,17.4,1.5,30.6L790,211.2c-3.7,13.2-10,23.4-18.7,30.6
		c-8.8,7.2-19.5,10.8-32.2,10.8c-12.7,0-21.4-3.6-26.1-10.8c-4.7-7.2-5.2-17.4-1.5-30.6l24.4-86.6C739.5,111.4,745.8,101.2,754.6,94
		z M692.2,85.5c13.3,0,22.2,3.1,26.6,9.3c4.4,6.2,4.7,15.7,1.1,28.6l-2.8,10.1c-4.8,17.1-13.5,27.9-26.1,32.5l-0.1,0.5
		c5.7,1.9,9.1,5.7,10,11.5c1,5.8,0.1,13.6-2.7,23.3l-8.1,28.9c-1.3,4.7-2.2,8.5-2.7,11.4c-0.5,2.9-0.5,5.8-0.1,8.6H661
		c-0.2-2.7-0.1-5.2,0.2-7.5c0.3-2.4,1.4-6.6,3.1-12.7l8.5-30.1c2.1-7.5,2.4-12.8,0.8-15.8c-1.6-3-5.4-4.5-11.3-4.5h-8.9l-19.9,70.6
		h-25.9l46.3-164.7H692.2z M565.6,94c8.8-7.2,19.5-10.8,32.2-10.8c12.7,0,21.4,3.6,26.1,10.8c4.7,7.2,5.2,17.4,1.5,30.6l-24.4,86.6
		c-3.7,13.2-10,23.4-18.7,30.6c-8.8,7.2-19.5,10.8-32.2,10.8c-12.7,0-21.4-3.6-26.1-10.8c-4.7-7.2-5.2-17.4-1.5-30.6l24.4-86.6
		C550.6,111.4,556.9,101.2,565.6,94z M468.3,85.5h80l-6.6,23.5h-27.1l-39.7,141.2H449l39.7-141.2h-27.1L468.3,85.5z"/>
	<g>
		<polygon class="st1" points="559.1,320.5 559.1,310.8 559.1,301.1 548.8,301.1 548.8,310.8 548.8,320.5 548.8,330.2 548.8,339.8 
			548.8,349.5 548.8,359.2 548.8,368.9 559.1,368.9 559.1,359.2 559.1,349.5 559.1,339.8 559.1,330.2 569.3,330.2 569.3,320.5 		"/>
		<rect x="569.3" y="330.2" class="st1" width="10.3" height="9.7"/>
		<polygon class="st1" points="589.9,310.8 589.9,320.5 589.9,330.2 589.9,339.8 579.6,339.8 579.6,349.5 589.9,349.5 589.9,359.2 
			589.9,368.9 600.1,368.9 600.1,359.2 600.1,349.5 600.1,339.8 600.1,330.2 600.1,320.5 600.1,310.8 600.1,301.1 589.9,301.1 		"/>
		<polygon class="st1" points="620.6,339.8 620.6,330.2 610.4,330.2 610.4,339.8 610.4,349.5 610.4,359.2 620.6,359.2 620.6,349.5 
					"/>
		<polygon class="st1" points="641.2,330.2 651.4,330.2 651.4,320.5 641.2,320.5 630.9,320.5 620.6,320.5 620.6,330.2 630.9,330.2 
					"/>
		<polygon class="st1" points="651.4,339.8 651.4,349.5 651.4,359.2 661.7,359.2 661.7,349.5 661.7,339.8 661.7,330.2 651.4,330.2 
					"/>
		<polygon class="st1" points="702.7,320.5 692.5,320.5 682.2,320.5 671.9,320.5 671.9,330.2 671.9,339.8 671.9,349.5 671.9,359.2 
			671.9,368.9 682.2,368.9 682.2,359.2 682.2,349.5 682.2,339.8 682.2,330.2 692.5,330.2 702.7,330.2 713,330.2 713,320.5 		"/>
		<polygon class="st1" points="713,339.8 713,349.5 713,359.2 713,368.9 723.2,368.9 723.2,359.2 723.2,349.5 723.2,339.8 
			723.2,330.2 713,330.2 		"/>
		<polygon class="st1" points="630.9,359.2 620.6,359.2 620.6,368.9 630.9,368.9 641.2,368.9 651.4,368.9 651.4,359.2 641.2,359.2 
					"/>
		<polygon class="st1" points="798.7,301.1 788.4,301.1 778.2,301.1 767.9,301.1 767.9,310.8 767.9,320.5 767.9,330.2 767.9,339.8 
			767.9,349.5 767.9,359.2 767.9,368.9 778.2,368.9 778.2,359.2 778.2,349.5 778.2,339.8 788.4,339.8 798.7,339.8 808.9,339.8 
			808.9,330.2 798.7,330.2 788.4,330.2 778.2,330.2 778.2,320.5 778.2,310.8 788.4,310.8 798.7,310.8 808.9,310.8 819.2,310.8 
			819.2,301.1 808.9,301.1 		"/>
		<polygon class="st1" points="839.7,339.8 839.7,330.2 839.7,320.5 829.5,320.5 829.5,330.2 829.5,339.8 829.5,349.5 829.5,359.2 
			839.7,359.2 839.7,349.5 		"/>
		<polygon class="st1" points="870.5,330.2 870.5,339.8 870.5,349.5 870.5,359.2 880.8,359.2 880.8,349.5 880.8,339.8 880.8,330.2 
			880.8,320.5 870.5,320.5 		"/>
		<polygon class="st1" points="921.8,320.5 911.5,320.5 901.3,320.5 891,320.5 891,330.2 891,339.8 891,349.5 891,359.2 891,368.9 
			901.3,368.9 901.3,359.2 901.3,349.5 901.3,339.8 901.3,330.2 911.5,330.2 921.8,330.2 932.1,330.2 932.1,320.5 		"/>
		<polygon class="st1" points="932.1,339.8 932.1,349.5 932.1,359.2 932.1,368.9 942.3,368.9 942.3,359.2 942.3,349.5 942.3,339.8 
			942.3,330.2 932.1,330.2 		"/>
		<polygon class="st1" points="962.8,330.2 952.6,330.2 952.6,339.8 952.6,349.5 962.8,349.5 962.8,339.8 		"/>
		<polygon class="st1" points="973.1,368.9 962.8,368.9 952.6,368.9 952.6,378.6 962.8,378.6 973.1,378.6 983.4,378.6 993.6,378.6 
			993.6,368.9 983.4,368.9 		"/>
		<polygon class="st1" points="983.4,320.5 973.1,320.5 962.8,320.5 962.8,330.2 973.1,330.2 983.4,330.2 993.6,330.2 993.6,339.8 
			993.6,349.5 983.4,349.5 973.1,349.5 962.8,349.5 962.8,359.2 973.1,359.2 983.4,359.2 993.6,359.2 993.6,368.9 1003.9,368.9 
			1003.9,359.2 1003.9,349.5 1003.9,339.8 1003.9,330.2 1003.9,320.5 993.6,320.5 		"/>
		<rect x="1014.2" y="291.4" class="st1" width="10.3" height="9.7"/>
		<polygon class="st1" points="1014.2,330.2 1014.2,339.8 1014.2,349.5 1014.2,359.2 1014.2,368.9 1024.4,368.9 1024.4,359.2 
			1024.4,349.5 1024.4,339.8 1024.4,330.2 1024.4,320.5 1014.2,320.5 		"/>
		<polygon class="st1" points="1075.7,339.8 1075.7,349.5 1075.7,359.2 1086,359.2 1086,349.5 1086,339.8 1086,330.2 1075.7,330.2 
					"/>
		<polygon class="st1" points="1096.2,301.1 1096.2,310.8 1096.2,320.5 1096.2,330.2 1096.2,339.8 1096.2,349.5 1096.2,359.2 
			1096.2,368.9 1106.5,368.9 1106.5,359.2 1106.5,349.5 1106.5,339.8 1106.5,330.2 1106.5,320.5 1106.5,310.8 1106.5,301.1 
			1106.5,291.4 1096.2,291.4 		"/>
		<polygon class="st1" points="1147.5,330.2 1157.8,330.2 1157.8,320.5 1147.5,320.5 1137.3,320.5 1127,320.5 1127,330.2 
			1137.3,330.2 		"/>
		<polygon class="st1" points="1157.8,339.8 1147.5,339.8 1137.3,339.8 1127,339.8 1127,330.2 1116.8,330.2 1116.8,339.8 
			1116.8,349.5 1116.8,359.2 1127,359.2 1127,349.5 1137.3,349.5 1147.5,349.5 1157.8,349.5 1168.1,349.5 1168.1,339.8 
			1168.1,330.2 1157.8,330.2 		"/>
		<polygon class="st1" points="850,359.2 839.7,359.2 839.7,368.9 850,368.9 860.2,368.9 870.5,368.9 870.5,359.2 860.2,359.2 		"/>
		<polygon class="st1" points="1055.2,359.2 1044.9,359.2 1044.9,349.5 1044.9,339.8 1044.9,330.2 1055.2,330.2 1065.5,330.2 
			1075.7,330.2 1075.7,320.5 1065.5,320.5 1055.2,320.5 1044.9,320.5 1044.9,310.8 1044.9,301.1 1034.7,301.1 1034.7,310.8 
			1034.7,320.5 1034.7,330.2 1034.7,339.8 1034.7,349.5 1034.7,359.2 1034.7,368.9 1044.9,368.9 1055.2,368.9 1065.5,368.9 
			1075.7,368.9 1075.7,359.2 1065.5,359.2 		"/>
		<polygon class="st1" points="1137.3,368.9 1147.5,368.9 1157.8,368.9 1168.1,368.9 1168.1,359.2 1157.8,359.2 1147.5,359.2 
			1137.3,359.2 1127,359.2 1127,368.9 		"/>
		<polygon class="st1" points="1236.2,301.1 1225.9,301.1 1215.7,301.1 1205.4,301.1 1205.4,310.8 1215.7,310.8 1225.9,310.8 
			1225.9,320.5 1225.9,330.2 1225.9,339.8 1225.9,349.5 1225.9,359.2 1225.9,368.9 1236.2,368.9 1236.2,359.2 1236.2,349.5 
			1236.2,339.8 1236.2,330.2 1236.2,320.5 1236.2,310.8 1246.4,310.8 1256.7,310.8 1256.7,301.1 1246.4,301.1 		"/>
		<polygon class="st1" points="1297.8,320.5 1287.5,320.5 1277.2,320.5 1277.2,310.8 1277.2,301.1 1267,301.1 1267,310.8 
			1267,320.5 1267,330.2 1267,339.8 1267,349.5 1267,359.2 1267,368.9 1277.2,368.9 1277.2,359.2 1277.2,349.5 1277.2,339.8 
			1277.2,330.2 1287.5,330.2 1297.8,330.2 1308,330.2 1308,320.5 		"/>
		<polygon class="st1" points="1308,339.8 1308,349.5 1308,359.2 1308,368.9 1318.3,368.9 1318.3,359.2 1318.3,349.5 1318.3,339.8 
			1318.3,330.2 1308,330.2 		"/>
		<rect x="1390.1" y="301.1" class="st1" width="10.3" height="9.7"/>
		<polygon class="st1" points="1359.3,320.5 1359.3,330.2 1369.6,330.2 1379.8,330.2 1379.8,320.5 1369.6,320.5 		"/>
		<rect x="1349.1" y="330.2" class="st1" width="10.3" height="9.7"/>
		<polygon class="st1" points="1338.8,330.2 1338.8,320.5 1328.5,320.5 1328.5,330.2 1328.5,339.8 1328.5,349.5 1328.5,359.2 
			1328.5,368.9 1338.8,368.9 1338.8,359.2 1338.8,349.5 1349.1,349.5 1349.1,339.8 1338.8,339.8 		"/>
		<polygon class="st1" points="1390.1,330.2 1390.1,339.8 1390.1,349.5 1390.1,359.2 1390.1,368.9 1400.4,368.9 1400.4,359.2 
			1400.4,349.5 1400.4,339.8 1400.4,330.2 1400.4,320.5 1390.1,320.5 		"/>
		<polygon class="st1" points="1410.6,320.5 1410.6,330.2 1410.6,339.8 1410.6,349.5 1410.6,359.2 1410.6,368.9 1420.9,368.9 
			1420.9,359.2 1420.9,349.5 1420.9,339.8 1420.9,330.2 1420.9,320.5 1420.9,310.8 1410.6,310.8 		"/>
		<polygon class="st1" points="1431.1,320.5 1431.1,330.2 1431.1,339.8 1431.1,349.5 1431.1,359.2 1431.1,368.9 1441.4,368.9 
			1441.4,359.2 1441.4,349.5 1441.4,339.8 1441.4,330.2 1441.4,320.5 1441.4,310.8 1431.1,310.8 		"/>
		<polygon class="st1" points="1482.4,330.2 1492.7,330.2 1492.7,320.5 1482.4,320.5 1472.2,320.5 1461.9,320.5 1461.9,330.2 
			1472.2,330.2 		"/>
		<rect x="1451.7" y="330.2" class="st1" width="10.3" height="9.7"/>
		<polygon class="st1" points="1482.4,339.8 1472.2,339.8 1461.9,339.8 1461.9,349.5 1472.2,349.5 1482.4,349.5 1492.7,349.5 
			1492.7,339.8 		"/>
		<rect x="1492.7" y="349.5" class="st1" width="10.3" height="9.7"/>
		<polygon class="st1" points="1472.2,359.2 1461.9,359.2 1451.7,359.2 1451.7,368.9 1461.9,368.9 1472.2,368.9 1482.4,368.9 
			1492.7,368.9 1492.7,359.2 1482.4,359.2 		"/>
	</g>
</g>
</svg>
