<?xml version="1.0" encoding="utf-8"?>
<!-- Generator: Adobe Illustrator 25.2.1, SVG Export Plug-In . SVG Version: 6.00 Build 0)  -->
<svg version="1.1" id="Layer_1" xmlns="http://www.w3.org/2000/svg" xmlns:xlink="http://www.w3.org/1999/xlink" x="0px" y="0px"
	 viewBox="0 0 1626.3 448" style="enable-background:new 0 0 1626.3 448;" xml:space="preserve">
<style type="text/css">
	.st0{fill:#FFFFFF;}
</style>
<g>
	<path class="st0" d="M131,244.9l-7.1,25.2c-2.8,10-8.6,15.1-17.2,15.1c-8.6,0-11.5-5-8.7-15.1l25.9-92c2.9-10.2,8.6-15.3,17.2-15.3
		c8.6,0,11.5,5.1,8.6,15.3l-5.4,19.1h24.5l4.9-17.4c3.6-12.9,3.2-22.8-1.4-29.9c-4.5-7.1-13-10.6-25.4-10.6
		c-12.4,0-22.8,3.5-31.3,10.6c-8.5,7.1-14.6,17-18.2,29.9l-24.9,88.5c-3.6,12.9-3.2,22.8,1.4,29.9c4.5,7.1,13,10.6,25.4,10.6
		c12.4,0,22.8-3.5,31.3-10.6c8.5-7.1,14.6-17,18.2-29.9l6.6-23.3H131z"/>
	<path class="st0" d="M265,150.9c-4.4-6.2-13.2-9.3-26.6-9.3h-38.3l-46.3,164.7h25.9l19.9-70.6h8.9c6,0,9.7,1.5,11.3,4.5
		c1.6,3,1.3,8.2-0.8,15.8l-8.5,30.1c-1.7,6.1-2.8,10.4-3.1,12.7c-0.3,2.4-0.4,4.9-0.2,7.5h26.3c-0.5-2.8-0.4-5.7,0.1-8.6
		c0.5-2.9,1.4-6.7,2.7-11.4l8.1-28.9c2.7-9.7,3.6-17.5,2.7-23.3c-1-5.8-4.3-9.6-10-11.5l0.1-0.5c12.6-4.5,21.3-15.4,26.1-32.5
		l2.8-10.1C269.7,166.7,269.4,157.1,265,150.9z M239.5,182.1l-3.6,12.7c-1.8,6.3-4.3,10.7-7.7,13.4c-3.3,2.7-7.6,4-12.8,4h-9.4
		l13.2-47.1h11.8c4.5,0,7.5,1.3,8.9,4C241.3,171.8,241.2,176.2,239.5,182.1z"/>
	<polygon class="st0" points="346.9,141.7 312.2,202.1 311.8,202.1 311.1,141.7 283.6,141.7 288.3,236.2 268.5,306.3 294.4,306.3 
		314.2,236.2 372.1,141.7 	"/>
	<path class="st0" d="M556.8,285.2c8.9,0,14.9-5.4,18-16.2l25.3-89.9c3-10.8,0.1-16.2-8.8-16.2c-8.9,0-14.9,5.4-18,16.2L548,268.9
		C544.9,279.7,547.9,285.2,556.8,285.2z"/>
	<polygon class="st0" points="1296.3,170.4 1295.8,170.4 1261.6,251.8 1284.9,251.8 	"/>
	<path class="st0" d="M1025,285.2c8.9,0,14.9-5.4,18-16.2l25.3-89.9c3-10.8,0.1-16.2-8.8-16.2c-8.9,0-14.9,5.4-18,16.2l-25.3,89.9
		C1013.1,279.7,1016,285.2,1025,285.2z"/>
	<path class="st0" d="M682.1,208.2c3.3-2.7,5.9-7.1,7.7-13.4l3.6-12.7c1.7-6,1.8-10.3,0.5-12.9c-1.4-2.7-4.3-4-8.9-4h-11.8
		l-13.2,47.1h9.4C674.5,212.2,678.8,210.9,682.1,208.2z"/>
	<path class="st0" d="M745.7,285.2c8.9,0,14.9-5.4,18-16.2l25.3-89.9c3-10.8,0.1-16.2-8.8-16.2c-8.9,0-14.9,5.4-18,16.2l-25.3,89.9
		C733.8,279.7,736.8,285.2,745.7,285.2z"/>
	<path class="st0" d="M1506.4,330.7l49.7-213.5H464.1l-12.5,47.9c-0.1-5.2-1.3-9.6-3.6-13.2c-4.5-6.9-13.2-10.4-26-10.4h-38.1
		l-46.3,164.7h25.9l18.9-67h12.2c12.9,0,23.5-3.4,31.9-10.4c5.3-4.3,9.6-10,13.1-16.9l-30.9,118.6H1506.4z M423.6,180.7l-5.5,19.5
		c-1.6,5.6-3.8,9.6-6.6,12c-2.8,2.4-6.3,3.5-10.5,3.5h-12.2l14.2-50.6h12.2c4.2,0,7.1,1.2,8.5,3.5
		C425.3,171.1,425.2,175.1,423.6,180.7z M1447.6,180.2c3.7-13,9.8-23.1,18.4-30.2c8.6-7.1,19.2-10.7,31.7-10.7
		c12.4,0,20.8,3.6,25.1,10.7c4.3,7.1,4.6,17.4,0.9,30.7l-1.9,6.8h-24.5l2.4-8.5c1.6-5.6,1.6-9.8,0.2-12.4c-1.5-2.6-4.3-3.9-8.6-3.9
		c-8.6,0-14.4,5.3-17.4,15.8c-1.7,6-1.6,11.5,0.1,16.7c1.8,5.2,5.8,11.5,12.2,18.8c8.2,9.4,13.2,18,15.1,25.6
		c1.9,7.7,1.4,16.7-1.5,27.1c-3.8,13.5-10,23.8-18.7,31.1c-8.7,7.2-19.4,10.8-32.1,10.8c-12.5,0-21-3.6-25.5-10.7
		c-4.4-7.1-4.8-17.4-1-30.7l2.6-9.4h24.5l-3.2,11.3c-3,10.7,0,16,8.9,16c4.4,0,8.1-1.3,11.1-3.9c3-2.6,5.3-6.8,7-12.6
		c1.9-6.9,2.1-13,0.4-18.2c-1.7-5.3-5.7-11.6-12.1-18.9c-8-9.4-13.1-17.9-15.2-25.5C1444.6,198.4,1444.9,189.8,1447.6,180.2z
		 M1394.5,141.7l-2.6,98.6h0.5l27.7-98.6h23.1l-46.3,164.7h-26.6l2.8-120.2h-0.5l-33.8,120.2h-23.1l46.3-164.7H1394.5z
		 M1322.7,141.7l-19.5,164.7h-25.9l4.5-32.7l-0.1,0.5h-29.4l-13.8,32.2h-24l73.2-164.7H1322.7z M1248.4,141.7L1202,306.3h-25.9
		l46.3-164.7H1248.4z M1154.5,141.7l-2.6,98.6h0.5l27.7-98.6h23.1l-46.3,164.7h-26.6l2.8-120.2h-0.5l-33.8,120.2h-23.1l46.3-164.7
		H1154.5z M1033.8,150.1c8.8-7.2,19.5-10.8,32.2-10.8c12.7,0,21.4,3.6,26.1,10.8c4.7,7.2,5.2,17.4,1.5,30.6l-24.4,86.6
		c-3.7,13.2-10,23.4-18.7,30.6c-8.8,7.2-19.5,10.8-32.2,10.8c-12.7,0-21.4-3.6-26.1-10.8c-4.7-7.2-5.2-17.4-1.5-30.6l24.4-86.6
		C1018.8,167.5,1025,157.3,1033.8,150.1z M936.4,141.7h80l-6.6,23.5h-27.1L943,306.3h-25.9l39.7-141.2h-27.1L936.4,141.7z
		 M875.3,141.7l-2.6,98.6h0.5l27.7-98.6H924l-46.3,164.7H851l2.8-120.2h-0.5l-33.8,120.2h-23.1l46.3-164.7H875.3z M754.6,150.1
		c8.8-7.2,19.5-10.8,32.2-10.8c12.7,0,21.4,3.6,26.1,10.8c4.7,7.2,5.2,17.4,1.5,30.6L790,267.3c-3.7,13.2-10,23.4-18.7,30.6
		c-8.8,7.2-19.5,10.8-32.2,10.8c-12.7,0-21.4-3.6-26.1-10.8c-4.7-7.2-5.2-17.4-1.5-30.6l24.4-86.6
		C739.5,167.5,745.8,157.3,754.6,150.1z M692.2,141.7c13.3,0,22.2,3.1,26.6,9.3c4.4,6.2,4.7,15.7,1.1,28.6l-2.8,10.1
		c-4.8,17.1-13.5,27.9-26.1,32.5l-0.1,0.5c5.7,1.9,9.1,5.7,10,11.5c1,5.8,0.1,13.6-2.7,23.3l-8.1,28.9c-1.3,4.7-2.2,8.5-2.7,11.4
		c-0.5,2.9-0.5,5.8-0.1,8.6H661c-0.2-2.7-0.1-5.2,0.2-7.5c0.3-2.4,1.4-6.6,3.1-12.7l8.5-30.1c2.1-7.5,2.4-12.8,0.8-15.8
		c-1.6-3-5.4-4.5-11.3-4.5h-8.9l-19.9,70.6h-25.9l46.3-164.7H692.2z M565.6,150.1c8.8-7.2,19.5-10.8,32.2-10.8
		c12.7,0,21.4,3.6,26.1,10.8c4.7,7.2,5.2,17.4,1.5,30.6l-24.4,86.6c-3.7,13.2-10,23.4-18.7,30.6c-8.8,7.2-19.5,10.8-32.2,10.8
		c-12.7,0-21.4-3.6-26.1-10.8c-4.7-7.2-5.2-17.4-1.5-30.6l24.4-86.6C550.6,167.5,556.9,157.3,565.6,150.1z M468.3,141.7h80
		l-6.6,23.5h-27.1l-39.7,141.2H449l39.7-141.2h-27.1L468.3,141.7z"/>
</g>
</svg>
